<svg xmlns="http://www.w3.org/2000/svg" version="1.1" xmlns:xlink="http://www.w3.org/1999/xlink" xmlns:svgjs="http://svgjs.com/svgjs" width="1920" height="1080" preserveAspectRatio="none" viewBox="0 0 1920 1080"><g mask="url(&quot;#SvgjsMask1021&quot;)" fill="none"><rect width="1920" height="1080" x="0" y="0" fill="rgba(119, 96, 246, 1)"></rect><path d="M0,573.021C147.354,575.258,288.811,718.204,424.293,660.213C557.988,602.987,587.911,428.363,647.688,295.789C707.175,163.859,788.371,32.795,772.031,-111.001C755.518,-256.322,677.654,-398.848,559.034,-484.406C447.894,-564.568,291.508,-506.852,161.825,-551.127C23.031,-598.512,-74.057,-760.636,-220.366,-750.499C-368.288,-740.25,-498.877,-625.991,-576.963,-499.941C-650.923,-380.551,-629.303,-230.913,-629.241,-90.471C-629.187,31.226,-610.395,146.418,-576.624,263.335C-537.319,399.412,-540.877,580.439,-416.094,647.455C-289.398,715.499,-143.795,570.838,0,573.021" fill="#2a0cd2"></path><path d="M1920 1579.4279999999999C2010.551 1563.945 2081.749 1498.234 2147.654 1434.2359999999999 2203.71 1379.8020000000001 2224.179 1303.184 2269.8 1239.748 2329.94 1156.125 2450.618 1105.375 2458.048 1002.64 2465.376 901.317 2387.223 806.3109999999999 2305.51 745.953 2229.788 690.021 2123.672 720.193 2034.563 689.8330000000001 1939.525 657.453 1863.085 530.169 1768.159 562.876 1671.747 596.095 1694.209 749.519 1630.425 829.082 1570.499 903.8340000000001 1439.4859999999999 915.16 1412.134 1006.98 1385.012 1098.027 1460.402 1185.47 1498.312 1272.579 1536.965 1361.396 1557.815 1464.7069999999999 1636.137 1521.699 1715.826 1579.686 1822.856 1596.038 1920 1579.4279999999999" fill="#d8d1fc"></path></g><defs><mask id="SvgjsMask1021"><rect width="1920" height="1080" fill="#ffffff"></rect></mask></defs></svg>